%TF.GenerationSoftware,KiCad,Pcbnew,(6.0.6-0)*%
%TF.CreationDate,2022-10-10T02:33:12+09:00*%
%TF.ProjectId,A2E_Test,4132455f-5465-4737-942e-6b696361645f,rev?*%
%TF.SameCoordinates,Original*%
%TF.FileFunction,Paste,Top*%
%TF.FilePolarity,Positive*%
%FSLAX46Y46*%
G04 Gerber Fmt 4.6, Leading zero omitted, Abs format (unit mm)*
G04 Created by KiCad (PCBNEW (6.0.6-0)) date 2022-10-10 02:33:12*
%MOMM*%
%LPD*%
G01*
G04 APERTURE LIST*
G04 Aperture macros list*
%AMRoundRect*
0 Rectangle with rounded corners*
0 $1 Rounding radius*
0 $2 $3 $4 $5 $6 $7 $8 $9 X,Y pos of 4 corners*
0 Add a 4 corners polygon primitive as box body*
4,1,4,$2,$3,$4,$5,$6,$7,$8,$9,$2,$3,0*
0 Add four circle primitives for the rounded corners*
1,1,$1+$1,$2,$3*
1,1,$1+$1,$4,$5*
1,1,$1+$1,$6,$7*
1,1,$1+$1,$8,$9*
0 Add four rect primitives between the rounded corners*
20,1,$1+$1,$2,$3,$4,$5,0*
20,1,$1+$1,$4,$5,$6,$7,0*
20,1,$1+$1,$6,$7,$8,$9,0*
20,1,$1+$1,$8,$9,$2,$3,0*%
G04 Aperture macros list end*
%ADD10RoundRect,0.075000X0.662500X-0.075000X0.662500X0.075000X-0.662500X0.075000X-0.662500X-0.075000X0*%
%ADD11RoundRect,0.075000X0.075000X-0.662500X0.075000X0.662500X-0.075000X0.662500X-0.075000X-0.662500X0*%
%ADD12RoundRect,0.237500X0.250000X0.237500X-0.250000X0.237500X-0.250000X-0.237500X0.250000X-0.237500X0*%
%ADD13RoundRect,0.237500X-0.287500X-0.237500X0.287500X-0.237500X0.287500X0.237500X-0.287500X0.237500X0*%
%ADD14RoundRect,0.237500X-0.237500X0.300000X-0.237500X-0.300000X0.237500X-0.300000X0.237500X0.300000X0*%
%ADD15RoundRect,0.237500X0.237500X-0.300000X0.237500X0.300000X-0.237500X0.300000X-0.237500X-0.300000X0*%
G04 APERTURE END LIST*
D10*
%TO.C,U1*%
X124107500Y-139910000D03*
X124107500Y-139410000D03*
X124107500Y-138910000D03*
X124107500Y-138410000D03*
X124107500Y-137910000D03*
X124107500Y-137410000D03*
X124107500Y-136910000D03*
X124107500Y-136410000D03*
X124107500Y-135910000D03*
X124107500Y-135410000D03*
X124107500Y-134910000D03*
X124107500Y-134410000D03*
D11*
X125520000Y-132997500D03*
X126020000Y-132997500D03*
X126520000Y-132997500D03*
X127020000Y-132997500D03*
X127520000Y-132997500D03*
X128020000Y-132997500D03*
X128520000Y-132997500D03*
X129020000Y-132997500D03*
X129520000Y-132997500D03*
X130020000Y-132997500D03*
X130520000Y-132997500D03*
X131020000Y-132997500D03*
D10*
X132432500Y-134410000D03*
X132432500Y-134910000D03*
X132432500Y-135410000D03*
X132432500Y-135910000D03*
X132432500Y-136410000D03*
X132432500Y-136910000D03*
X132432500Y-137410000D03*
X132432500Y-137910000D03*
X132432500Y-138410000D03*
X132432500Y-138910000D03*
X132432500Y-139410000D03*
X132432500Y-139910000D03*
D11*
X131020000Y-141322500D03*
X130520000Y-141322500D03*
X130020000Y-141322500D03*
X129520000Y-141322500D03*
X129020000Y-141322500D03*
X128520000Y-141322500D03*
X128020000Y-141322500D03*
X127520000Y-141322500D03*
X127020000Y-141322500D03*
X126520000Y-141322500D03*
X126020000Y-141322500D03*
X125520000Y-141322500D03*
%TD*%
D12*
%TO.C,R1*%
X144422500Y-132080000D03*
X142597500Y-132080000D03*
%TD*%
D13*
%TO.C,D1*%
X148985000Y-132080000D03*
X150735000Y-132080000D03*
%TD*%
D14*
%TO.C,C2*%
X121285000Y-136297500D03*
X121285000Y-138022500D03*
%TD*%
D15*
%TO.C,C1*%
X134620000Y-139038500D03*
X134620000Y-137313500D03*
%TD*%
M02*
