%TF.GenerationSoftware,KiCad,Pcbnew,(6.0.6-0)*%
%TF.CreationDate,2022-10-10T02:33:12+09:00*%
%TF.ProjectId,A2E_Test,4132455f-5465-4737-942e-6b696361645f,rev?*%
%TF.SameCoordinates,Original*%
%TF.FileFunction,Copper,L2,Bot*%
%TF.FilePolarity,Positive*%
%FSLAX46Y46*%
G04 Gerber Fmt 4.6, Leading zero omitted, Abs format (unit mm)*
G04 Created by KiCad (PCBNEW (6.0.6-0)) date 2022-10-10 02:33:12*
%MOMM*%
%LPD*%
G01*
G04 APERTURE LIST*
%TA.AperFunction,ComponentPad*%
%ADD10R,1.700000X1.700000*%
%TD*%
%TA.AperFunction,ComponentPad*%
%ADD11O,1.700000X1.700000*%
%TD*%
%TA.AperFunction,ConnectorPad*%
%ADD12R,1.524000X7.620000*%
%TD*%
%TA.AperFunction,ViaPad*%
%ADD13C,0.800000*%
%TD*%
%TA.AperFunction,Conductor*%
%ADD14C,0.250000*%
%TD*%
%TA.AperFunction,Conductor*%
%ADD15C,0.750000*%
%TD*%
%TA.AperFunction,Conductor*%
%ADD16C,0.500000*%
%TD*%
G04 APERTURE END LIST*
D10*
%TO.P,J2,1,Pin_1*%
%TO.N,/~{I{slash}O_SELECT}*%
X99060000Y-152400000D03*
D11*
%TO.P,J2,2,Pin_2*%
%TO.N,/A0*%
X101600000Y-152400000D03*
%TO.P,J2,3,Pin_3*%
%TO.N,/A1*%
X104140000Y-152400000D03*
%TO.P,J2,4,Pin_4*%
%TO.N,/A2*%
X106680000Y-152400000D03*
%TO.P,J2,5,Pin_5*%
%TO.N,/A3*%
X109220000Y-152400000D03*
%TO.P,J2,6,Pin_6*%
%TO.N,/A4*%
X111760000Y-152400000D03*
%TO.P,J2,7,Pin_7*%
%TO.N,/A5*%
X114300000Y-152400000D03*
%TO.P,J2,8,Pin_8*%
%TO.N,/A6*%
X116840000Y-152400000D03*
%TO.P,J2,9,Pin_9*%
%TO.N,/A7*%
X119380000Y-152400000D03*
%TO.P,J2,10,Pin_10*%
%TO.N,/A8*%
X121920000Y-152400000D03*
%TO.P,J2,11,Pin_11*%
%TO.N,/A9*%
X124460000Y-152400000D03*
%TO.P,J2,12,Pin_12*%
%TO.N,/A10*%
X127000000Y-152400000D03*
%TO.P,J2,13,Pin_13*%
%TO.N,/A11*%
X129540000Y-152400000D03*
%TO.P,J2,14,Pin_14*%
%TO.N,/A12*%
X132080000Y-152400000D03*
%TO.P,J2,15,Pin_15*%
%TO.N,/A13*%
X134620000Y-152400000D03*
%TO.P,J2,16,Pin_16*%
%TO.N,/A14*%
X137160000Y-152400000D03*
%TO.P,J2,17,Pin_17*%
%TO.N,/A15*%
X139700000Y-152400000D03*
%TO.P,J2,18,Pin_18*%
%TO.N,/R{slash}W*%
X142240000Y-152400000D03*
%TO.P,J2,19,Pin_19*%
%TO.N,unconnected-(J2-Pad19)*%
X144780000Y-152400000D03*
%TO.P,J2,20,Pin_20*%
%TO.N,/~{I{slash}0_STROBE}*%
X147320000Y-152400000D03*
%TO.P,J2,21,Pin_21*%
%TO.N,/RDY*%
X149860000Y-152400000D03*
%TO.P,J2,22,Pin_22*%
%TO.N,/~{DMA}*%
X152400000Y-152400000D03*
%TO.P,J2,23,Pin_23*%
%TO.N,/INT_OUT*%
X154940000Y-152400000D03*
%TO.P,J2,24,Pin_24*%
%TO.N,/DMA_OUT*%
X157480000Y-152400000D03*
%TO.P,J2,25,Pin_25*%
%TO.N,+5V*%
X160020000Y-152400000D03*
%TO.P,J2,26,Pin_26*%
%TO.N,GND*%
X160020000Y-154940000D03*
%TO.P,J2,27,Pin_27*%
%TO.N,/DMA_IN*%
X157480000Y-154940000D03*
%TO.P,J2,28,Pin_28*%
%TO.N,/INT_IN*%
X154940000Y-154940000D03*
%TO.P,J2,29,Pin_29*%
%TO.N,/~{NMI}*%
X152400000Y-154940000D03*
%TO.P,J2,30,Pin_30*%
%TO.N,/~{IRQ}*%
X149860000Y-154940000D03*
%TO.P,J2,31,Pin_31*%
%TO.N,/~{RES}*%
X147320000Y-154940000D03*
%TO.P,J2,32,Pin_32*%
%TO.N,/~{INH}*%
X144780000Y-154940000D03*
%TO.P,J2,33,Pin_33*%
%TO.N,/-12V*%
X142240000Y-154940000D03*
%TO.P,J2,34,Pin_34*%
%TO.N,/-5V*%
X139700000Y-154940000D03*
%TO.P,J2,35,Pin_35*%
%TO.N,unconnected-(J2-Pad35)*%
X137160000Y-154940000D03*
%TO.P,J2,36,Pin_36*%
%TO.N,/7M*%
X134620000Y-154940000D03*
%TO.P,J2,37,Pin_37*%
%TO.N,/Q3*%
X132080000Y-154940000D03*
%TO.P,J2,38,Pin_38*%
%TO.N,/PHI1*%
X129540000Y-154940000D03*
%TO.P,J2,39,Pin_39*%
%TO.N,/USER_1*%
X127000000Y-154940000D03*
%TO.P,J2,40,Pin_40*%
%TO.N,/PHI0*%
X124460000Y-154940000D03*
%TO.P,J2,41,Pin_41*%
%TO.N,/~{DEVICE_SELECT}*%
X121920000Y-154940000D03*
%TO.P,J2,42,Pin_42*%
%TO.N,/D7*%
X119380000Y-154940000D03*
%TO.P,J2,43,Pin_43*%
%TO.N,/D6*%
X116840000Y-154940000D03*
%TO.P,J2,44,Pin_44*%
%TO.N,/D5*%
X114300000Y-154940000D03*
%TO.P,J2,45,Pin_45*%
%TO.N,/D4*%
X111760000Y-154940000D03*
%TO.P,J2,46,Pin_46*%
%TO.N,/D3*%
X109220000Y-154940000D03*
%TO.P,J2,47,Pin_47*%
%TO.N,/D2*%
X106680000Y-154940000D03*
%TO.P,J2,48,Pin_48*%
%TO.N,/D1*%
X104140000Y-154940000D03*
%TO.P,J2,49,Pin_49*%
%TO.N,/D0*%
X101600000Y-154940000D03*
%TO.P,J2,50,Pin_50*%
%TO.N,/+12V*%
X99060000Y-154940000D03*
%TD*%
D10*
%TO.P,J4,1,Pin_1*%
%TO.N,+5V*%
X160020000Y-133355000D03*
D11*
%TO.P,J4,2,Pin_2*%
%TO.N,/ICE_DAT*%
X160020000Y-135895000D03*
%TO.P,J4,3,Pin_3*%
%TO.N,/ICE_CLK*%
X160020000Y-138435000D03*
%TO.P,J4,4,Pin_4*%
%TO.N,/~{RST}*%
X160020000Y-140975000D03*
%TO.P,J4,5,Pin_5*%
%TO.N,GND*%
X160020000Y-143515000D03*
%TD*%
D10*
%TO.P,J3,1,Pin_1*%
%TO.N,+5V*%
X149860000Y-135900000D03*
D11*
%TO.P,J3,2,Pin_2*%
%TO.N,/SDA1*%
X149860000Y-138440000D03*
%TO.P,J3,3,Pin_3*%
%TO.N,/SCL1*%
X149860000Y-140980000D03*
%TO.P,J3,4,Pin_4*%
%TO.N,GND*%
X149860000Y-143520000D03*
%TD*%
D12*
%TO.P,J1,26,GND*%
%TO.N,GND*%
X160020000Y-165100000D03*
%TO.P,J1,27,DMA_IN*%
%TO.N,/DMA_IN*%
X157480000Y-165100000D03*
%TO.P,J1,28,INT_IN*%
%TO.N,/INT_IN*%
X154940000Y-165100000D03*
%TO.P,J1,29,NMI#*%
%TO.N,/~{NMI}*%
X152400000Y-165100000D03*
%TO.P,J1,30,IRQ#*%
%TO.N,/~{IRQ}*%
X149860000Y-165100000D03*
%TO.P,J1,31,RES#*%
%TO.N,/~{RES}*%
X147320000Y-165100000D03*
%TO.P,J1,32,INH#*%
%TO.N,/~{INH}*%
X144780000Y-165100000D03*
%TO.P,J1,33,-12V*%
%TO.N,/-12V*%
X142240000Y-165100000D03*
%TO.P,J1,34,-5V*%
%TO.N,/-5V*%
X139700000Y-165100000D03*
%TO.P,J1,35,N.C.*%
%TO.N,unconnected-(J1-Pad35)*%
X137160000Y-165100000D03*
%TO.P,J1,36,7M*%
%TO.N,/7M*%
X134620000Y-165100000D03*
%TO.P,J1,37,Q3*%
%TO.N,/Q3*%
X132080000Y-165100000D03*
%TO.P,J1,38,PHI1*%
%TO.N,/PHI1*%
X129540000Y-165100000D03*
%TO.P,J1,39,USER_1*%
%TO.N,/USER_1*%
X127000000Y-165100000D03*
%TO.P,J1,40,PHI0*%
%TO.N,/PHI0*%
X124460000Y-165100000D03*
%TO.P,J1,41,DEVICE_SELECT#*%
%TO.N,/~{DEVICE_SELECT}*%
X121920000Y-165100000D03*
%TO.P,J1,42,D7*%
%TO.N,/D7*%
X119380000Y-165100000D03*
%TO.P,J1,43,D6*%
%TO.N,/D6*%
X116840000Y-165100000D03*
%TO.P,J1,44,D5*%
%TO.N,/D5*%
X114300000Y-165100000D03*
%TO.P,J1,45,D4*%
%TO.N,/D4*%
X111760000Y-165100000D03*
%TO.P,J1,46,D3*%
%TO.N,/D3*%
X109220000Y-165100000D03*
%TO.P,J1,47,D2*%
%TO.N,/D2*%
X106680000Y-165100000D03*
%TO.P,J1,48,D1*%
%TO.N,/D1*%
X104140000Y-165100000D03*
%TO.P,J1,49,D0*%
%TO.N,/D0*%
X101600000Y-165100000D03*
%TO.P,J1,50,+12V*%
%TO.N,/+12V*%
X99060000Y-165100000D03*
%TD*%
D13*
%TO.N,Net-(R1-Pad2)*%
X141752100Y-132912900D03*
X138171500Y-142399300D03*
%TO.N,/~{RST}*%
X139775300Y-145496900D03*
%TO.N,/ICE_CLK*%
X144320300Y-134592100D03*
%TO.N,/D0*%
X135700900Y-136774700D03*
%TO.N,/D1*%
X133778600Y-135724300D03*
%TO.N,/D2*%
X131068900Y-136031000D03*
%TO.N,/D3*%
X130182800Y-135278900D03*
%TO.N,/D4*%
X133871900Y-134723900D03*
%TO.N,/D5*%
X136688500Y-135683800D03*
%TO.N,/D6*%
X126890800Y-139607600D03*
%TO.N,/D7*%
X124743900Y-142786500D03*
%TO.N,/~{DEVICE_SELECT}*%
X129068600Y-143084100D03*
%TO.N,/PHI0*%
X125196300Y-145796500D03*
%TO.N,/Q3*%
X135775700Y-139303300D03*
%TO.N,/~{INH}*%
X124769200Y-133627400D03*
%TO.N,/~{NMI}*%
X144435900Y-148003700D03*
%TO.N,/RDY*%
X141361300Y-145360300D03*
%TO.N,/~{I{slash}0_STROBE}*%
X138299400Y-145058400D03*
%TO.N,/A11*%
X127184900Y-137196900D03*
%TO.N,/A10*%
X126005200Y-137449700D03*
%TO.N,/A7*%
X119474600Y-145971000D03*
X126662900Y-135801100D03*
%TO.N,/A6*%
X125456000Y-134885300D03*
%TO.N,/A5*%
X127655700Y-130950500D03*
%TO.N,/A4*%
X124055800Y-131276100D03*
%TO.N,/A3*%
X119985000Y-135302800D03*
X122424600Y-134232600D03*
%TO.N,/A2*%
X114954000Y-144788400D03*
X123234200Y-133627400D03*
%TO.N,/A1*%
X115404300Y-141798900D03*
X122438900Y-135683300D03*
%TO.N,/A0*%
X118147200Y-138461700D03*
X125468000Y-135910000D03*
%TO.N,/~{I{slash}O_SELECT}*%
X137281800Y-145223700D03*
%TO.N,GND*%
X119888000Y-138176000D03*
X128016000Y-139700000D03*
X132772300Y-140758300D03*
%TD*%
D14*
%TO.N,Net-(R1-Pad2)*%
X141752100Y-138818700D02*
X138171500Y-142399300D01*
X141752100Y-132912900D02*
X141752100Y-138818700D01*
%TO.N,/~{RST}*%
X143022200Y-142250000D02*
X139775300Y-145496900D01*
X157569700Y-142250000D02*
X143022200Y-142250000D01*
X158844700Y-140975000D02*
X157569700Y-142250000D01*
X160020000Y-140975000D02*
X158844700Y-140975000D01*
%TO.N,/ICE_CLK*%
X155001800Y-134592100D02*
X144320300Y-134592100D01*
X158844700Y-138435000D02*
X155001800Y-134592100D01*
X160020000Y-138435000D02*
X158844700Y-138435000D01*
D15*
%TO.N,/+12V*%
X99060000Y-154940000D02*
X99060000Y-165100000D01*
D14*
%TO.N,/D0*%
X101600000Y-165100000D02*
X101600000Y-155913500D01*
X101600000Y-155913500D02*
X101600000Y-154940000D01*
X135700900Y-134889600D02*
X135700900Y-136774700D01*
X129964900Y-129153600D02*
X135700900Y-134889600D01*
X119857900Y-129153600D02*
X129964900Y-129153600D01*
X102870000Y-146141500D02*
X119857900Y-129153600D01*
X102870000Y-154643500D02*
X102870000Y-146141500D01*
X101600000Y-155913500D02*
X102870000Y-154643500D01*
%TO.N,/D1*%
X104140000Y-154940000D02*
X104140000Y-155913500D01*
X104140000Y-155913500D02*
X104140000Y-165100000D01*
X129730100Y-131675800D02*
X133778600Y-135724300D01*
X127093800Y-131675800D02*
X129730100Y-131675800D01*
X125037800Y-129619800D02*
X127093800Y-131675800D01*
X120073200Y-129619800D02*
X125037800Y-129619800D01*
X105410000Y-144283000D02*
X120073200Y-129619800D01*
X105410000Y-154643500D02*
X105410000Y-144283000D01*
X104140000Y-155913500D02*
X105410000Y-154643500D01*
%TO.N,/D2*%
X106680000Y-165100000D02*
X106680000Y-154945800D01*
X106680000Y-154945800D02*
X106680000Y-154940000D01*
X131068900Y-135139100D02*
X131068900Y-136031000D01*
X128055900Y-132126100D02*
X131068900Y-135139100D01*
X126907200Y-132126100D02*
X128055900Y-132126100D01*
X124851300Y-130070200D02*
X126907200Y-132126100D01*
X120288600Y-130070200D02*
X124851300Y-130070200D01*
X107950000Y-142408800D02*
X120288600Y-130070200D01*
X107950000Y-153675800D02*
X107950000Y-142408800D01*
X106680000Y-154945800D02*
X107950000Y-153675800D01*
%TO.N,/D3*%
X109220000Y-154940000D02*
X109220000Y-155913500D01*
X109220000Y-155913500D02*
X109220000Y-165100000D01*
X127480300Y-132576400D02*
X130182800Y-135278900D01*
X126720600Y-132576400D02*
X127480300Y-132576400D01*
X124664800Y-130520600D02*
X126720600Y-132576400D01*
X120475100Y-130520600D02*
X124664800Y-130520600D01*
X110490000Y-140505700D02*
X120475100Y-130520600D01*
X110490000Y-154643500D02*
X110490000Y-140505700D01*
X109220000Y-155913500D02*
X110490000Y-154643500D01*
%TO.N,/D4*%
X111760000Y-165100000D02*
X111760000Y-155913500D01*
X111760000Y-155913500D02*
X111760000Y-154940000D01*
X134503900Y-135355900D02*
X133871900Y-134723900D01*
X134503900Y-136047700D02*
X134503900Y-135355900D01*
X133774900Y-136776700D02*
X134503900Y-136047700D01*
X130591900Y-136776700D02*
X133774900Y-136776700D01*
X126841900Y-133026700D02*
X130591900Y-136776700D01*
X126534000Y-133026700D02*
X126841900Y-133026700D01*
X125508700Y-132001400D02*
X126534000Y-133026700D01*
X120343900Y-132001400D02*
X125508700Y-132001400D01*
X112946700Y-139398600D02*
X120343900Y-132001400D01*
X112946700Y-154726800D02*
X112946700Y-139398600D01*
X111760000Y-155913500D02*
X112946700Y-154726800D01*
%TO.N,/D5*%
X114300000Y-154940000D02*
X114300000Y-155913500D01*
X114300000Y-155913500D02*
X114300000Y-165100000D01*
X136688500Y-136871700D02*
X136688500Y-135683800D01*
X135875500Y-137684700D02*
X136688500Y-136871700D01*
X130225900Y-137684700D02*
X135875500Y-137684700D01*
X126468500Y-133927300D02*
X130225900Y-137684700D01*
X126160800Y-133927300D02*
X126468500Y-133927300D01*
X125135500Y-132902000D02*
X126160800Y-133927300D01*
X120721200Y-132902000D02*
X125135500Y-132902000D01*
X114228600Y-139394600D02*
X120721200Y-132902000D01*
X114228600Y-147128200D02*
X114228600Y-139394600D01*
X115513300Y-148412900D02*
X114228600Y-147128200D01*
X115513300Y-154700200D02*
X115513300Y-148412900D01*
X114300000Y-155913500D02*
X115513300Y-154700200D01*
%TO.N,/D6*%
X116840000Y-165100000D02*
X116840000Y-155913500D01*
X116840000Y-155913500D02*
X116840000Y-154940000D01*
X118110000Y-148388400D02*
X126890800Y-139607600D01*
X118110000Y-154643500D02*
X118110000Y-148388400D01*
X116840000Y-155913500D02*
X118110000Y-154643500D01*
%TO.N,/D7*%
X119380000Y-154940000D02*
X119380000Y-155913500D01*
X119380000Y-155913500D02*
X119380000Y-165100000D01*
X120650300Y-146880100D02*
X124743900Y-142786500D01*
X120650300Y-154643200D02*
X120650300Y-146880100D01*
X119380000Y-155913500D02*
X120650300Y-154643200D01*
%TO.N,/~{DEVICE_SELECT}*%
X121920000Y-165100000D02*
X121920000Y-154951700D01*
X121920000Y-154951700D02*
X121920000Y-154940000D01*
X126849200Y-143084100D02*
X129068600Y-143084100D01*
X123124500Y-146808800D02*
X126849200Y-143084100D01*
X123124500Y-153747200D02*
X123124500Y-146808800D01*
X121920000Y-154951700D02*
X123124500Y-153747200D01*
%TO.N,/PHI0*%
X124460000Y-154940000D02*
X124460000Y-165100000D01*
X124460000Y-154940000D02*
X124460000Y-153764700D01*
X125677400Y-146277600D02*
X125196300Y-145796500D01*
X125677400Y-152859100D02*
X125677400Y-146277600D01*
X124771800Y-153764700D02*
X125677400Y-152859100D01*
X124460000Y-153764700D02*
X124771800Y-153764700D01*
%TO.N,/USER_1*%
X127000000Y-165100000D02*
X127000000Y-154940000D01*
%TO.N,/PHI1*%
X129540000Y-154940000D02*
X129540000Y-165100000D01*
%TO.N,/Q3*%
X132080000Y-165100000D02*
X132080000Y-154940000D01*
X132080000Y-154940000D02*
X132080000Y-153764700D01*
X132447400Y-153764700D02*
X132080000Y-153764700D01*
X133255300Y-152956800D02*
X132447400Y-153764700D01*
X133255300Y-149671300D02*
X133255300Y-152956800D01*
X135775700Y-147150900D02*
X133255300Y-149671300D01*
X135775700Y-139303300D02*
X135775700Y-147150900D01*
%TO.N,/7M*%
X134620000Y-154940000D02*
X134620000Y-165100000D01*
D15*
%TO.N,/-5V*%
X139700000Y-165100000D02*
X139700000Y-154940000D01*
%TO.N,/-12V*%
X142240000Y-154940000D02*
X142240000Y-165100000D01*
D14*
%TO.N,/~{INH}*%
X144780000Y-165100000D02*
X144780000Y-154940000D01*
X144780000Y-154940000D02*
X144780000Y-153764700D01*
X125224000Y-133627400D02*
X124769200Y-133627400D01*
X125974200Y-134377600D02*
X125224000Y-133627400D01*
X126276100Y-134377600D02*
X125974200Y-134377600D01*
X130476400Y-138577900D02*
X126276100Y-134377600D01*
X136090000Y-138577900D02*
X130476400Y-138577900D01*
X136503400Y-138991300D02*
X136090000Y-138577900D01*
X136503400Y-145480700D02*
X136503400Y-138991300D01*
X137335900Y-146313200D02*
X136503400Y-145480700D01*
X137868000Y-146313200D02*
X137335900Y-146313200D01*
X143604700Y-152049900D02*
X137868000Y-146313200D01*
X143604700Y-152956800D02*
X143604700Y-152049900D01*
X144412600Y-153764700D02*
X143604700Y-152956800D01*
X144780000Y-153764700D02*
X144412600Y-153764700D01*
%TO.N,/~{RES}*%
X147320000Y-154940000D02*
X147320000Y-165100000D01*
%TO.N,/~{IRQ}*%
X149860000Y-165100000D02*
X149860000Y-154940000D01*
%TO.N,/~{NMI}*%
X152400000Y-154940000D02*
X152400000Y-165100000D01*
X152400000Y-154940000D02*
X151224700Y-154940000D01*
X144597900Y-148003700D02*
X144435900Y-148003700D01*
X148590000Y-151995800D02*
X144597900Y-148003700D01*
X148590000Y-152831000D02*
X148590000Y-151995800D01*
X149523700Y-153764700D02*
X148590000Y-152831000D01*
X150416800Y-153764700D02*
X149523700Y-153764700D01*
X151224700Y-154572600D02*
X150416800Y-153764700D01*
X151224700Y-154940000D02*
X151224700Y-154572600D01*
%TO.N,/INT_IN*%
X154940000Y-165100000D02*
X154940000Y-154940000D01*
%TO.N,/DMA_IN*%
X157480000Y-154940000D02*
X157480000Y-165100000D01*
%TO.N,/RDY*%
X142820300Y-145360300D02*
X141361300Y-145360300D01*
X149860000Y-152400000D02*
X142820300Y-145360300D01*
%TO.N,/~{I{slash}0_STROBE}*%
X147320000Y-152400000D02*
X146144700Y-152400000D01*
X146144700Y-152049000D02*
X146144700Y-152400000D01*
X141136000Y-147040300D02*
X146144700Y-152049000D01*
X140281300Y-147040300D02*
X141136000Y-147040300D01*
X138299400Y-145058400D02*
X140281300Y-147040300D01*
%TO.N,/A11*%
X129540000Y-152400000D02*
X129540000Y-151224700D01*
X127958600Y-137196900D02*
X127184900Y-137196900D01*
X130344300Y-139582600D02*
X127958600Y-137196900D01*
X133277300Y-139582600D02*
X130344300Y-139582600D01*
X133994900Y-140300200D02*
X133277300Y-139582600D01*
X133994900Y-146769800D02*
X133994900Y-140300200D01*
X129540000Y-151224700D02*
X133994900Y-146769800D01*
%TO.N,/A10*%
X127000000Y-152400000D02*
X127000000Y-151224700D01*
X133538900Y-144685800D02*
X127000000Y-151224700D01*
X133538900Y-140499100D02*
X133538900Y-144685800D01*
X133072800Y-140033000D02*
X133538900Y-140499100D01*
X130020900Y-140033000D02*
X133072800Y-140033000D01*
X128662700Y-138674800D02*
X130020900Y-140033000D01*
X127630300Y-138674800D02*
X128662700Y-138674800D01*
X126405200Y-137449700D02*
X127630300Y-138674800D01*
X126005200Y-137449700D02*
X126405200Y-137449700D01*
%TO.N,/A7*%
X125814800Y-136649200D02*
X126662900Y-135801100D01*
X125352000Y-136649200D02*
X125814800Y-136649200D01*
X124550600Y-137450600D02*
X125352000Y-136649200D01*
X119552100Y-137450600D02*
X124550600Y-137450600D01*
X119129800Y-137872900D02*
X119552100Y-137450600D01*
X119129800Y-145626200D02*
X119129800Y-137872900D01*
X119474600Y-145971000D02*
X119129800Y-145626200D01*
%TO.N,/A6*%
X116840000Y-152400000D02*
X116840000Y-151224700D01*
X123857400Y-136483900D02*
X125456000Y-134885300D01*
X119099300Y-136483900D02*
X123857400Y-136483900D01*
X116840000Y-138743200D02*
X119099300Y-136483900D01*
X116840000Y-151224700D02*
X116840000Y-138743200D01*
%TO.N,/A5*%
X114300000Y-152400000D02*
X114300000Y-151224700D01*
X113778300Y-150703000D02*
X114300000Y-151224700D01*
X113778300Y-139208000D02*
X113778300Y-150703000D01*
X120534600Y-132451700D02*
X113778300Y-139208000D01*
X125322100Y-132451700D02*
X120534600Y-132451700D01*
X126347400Y-133477000D02*
X125322100Y-132451700D01*
X126655200Y-133477000D02*
X126347400Y-133477000D01*
X130405200Y-137227000D02*
X126655200Y-133477000D01*
X133992800Y-137227000D02*
X130405200Y-137227000D01*
X134980400Y-136239400D02*
X133992800Y-137227000D01*
X134980400Y-134806000D02*
X134980400Y-136239400D01*
X131124900Y-130950500D02*
X134980400Y-134806000D01*
X127655700Y-130950500D02*
X131124900Y-130950500D01*
%TO.N,/A4*%
X111760000Y-152400000D02*
X111760000Y-151224700D01*
X120356800Y-131276100D02*
X124055800Y-131276100D01*
X111760000Y-139872900D02*
X120356800Y-131276100D01*
X111760000Y-151224700D02*
X111760000Y-139872900D01*
%TO.N,/A3*%
X121055200Y-134232600D02*
X122424600Y-134232600D01*
X119985000Y-135302800D02*
X121055200Y-134232600D01*
%TO.N,/A2*%
X123078900Y-133472100D02*
X123234200Y-133627400D01*
X120789600Y-133472100D02*
X123078900Y-133472100D01*
X114678900Y-139582800D02*
X120789600Y-133472100D01*
X114678900Y-144513300D02*
X114678900Y-139582800D01*
X114954000Y-144788400D02*
X114678900Y-144513300D01*
%TO.N,/A1*%
X115404300Y-139542000D02*
X115404300Y-141798900D01*
X118912800Y-136033500D02*
X115404300Y-139542000D01*
X122088700Y-136033500D02*
X118912800Y-136033500D01*
X122438900Y-135683300D02*
X122088700Y-136033500D01*
%TO.N,/A0*%
X125442700Y-135910000D02*
X125468000Y-135910000D01*
X124352500Y-137000200D02*
X125442700Y-135910000D01*
X119339300Y-137000200D02*
X124352500Y-137000200D01*
X118147200Y-138192300D02*
X119339300Y-137000200D01*
X118147200Y-138461700D02*
X118147200Y-138192300D01*
%TO.N,/~{I{slash}O_SELECT}*%
X137281800Y-142053100D02*
X137281800Y-145223700D01*
X137461200Y-141873700D02*
X137281800Y-142053100D01*
X137461200Y-135420000D02*
X137461200Y-141873700D01*
X130744300Y-128703100D02*
X137461200Y-135420000D01*
X119671300Y-128703100D02*
X130744300Y-128703100D01*
X99060000Y-149314400D02*
X119671300Y-128703100D01*
X99060000Y-152400000D02*
X99060000Y-149314400D01*
%TO.N,GND*%
X126492000Y-138176000D02*
X128016000Y-139700000D01*
X119888000Y-138176000D02*
X126492000Y-138176000D01*
D15*
X161445000Y-153515000D02*
X160020000Y-154940000D01*
X161445000Y-144940000D02*
X161445000Y-153515000D01*
X160020000Y-143515000D02*
X161445000Y-144940000D01*
X160015000Y-143520000D02*
X160020000Y-143515000D01*
X149860000Y-143520000D02*
X160015000Y-143520000D01*
X160020000Y-165100000D02*
X160020000Y-154940000D01*
D16*
X129074300Y-140758300D02*
X132772300Y-140758300D01*
X128016000Y-139700000D02*
X129074300Y-140758300D01*
%TD*%
%TA.AperFunction,Conductor*%
%TO.N,GND*%
G36*
X162502121Y-128290002D02*
G01*
X162548614Y-128343658D01*
X162560000Y-128396000D01*
X162560000Y-157354000D01*
X162539998Y-157422121D01*
X162486342Y-157468614D01*
X162434000Y-157480000D01*
X161290000Y-157480000D01*
X161290000Y-161164000D01*
X161269998Y-161232121D01*
X161216342Y-161278614D01*
X161164000Y-161290000D01*
X158868514Y-161290000D01*
X158800393Y-161269998D01*
X158753900Y-161216342D01*
X158745931Y-161193145D01*
X158744598Y-161187540D01*
X158743745Y-161179684D01*
X158737866Y-161164000D01*
X158695767Y-161051703D01*
X158692615Y-161043295D01*
X158605261Y-160926739D01*
X158488705Y-160839385D01*
X158352316Y-160788255D01*
X158290134Y-160781500D01*
X158239500Y-160781500D01*
X158171379Y-160761498D01*
X158124886Y-160707842D01*
X158113500Y-160655500D01*
X158113500Y-156220427D01*
X158133502Y-156152306D01*
X158174618Y-156112550D01*
X158177994Y-156110896D01*
X158359860Y-155981173D01*
X158406722Y-155934475D01*
X158514435Y-155827137D01*
X158518096Y-155823489D01*
X158577594Y-155740689D01*
X158645435Y-155646277D01*
X158648453Y-155642077D01*
X158669320Y-155599857D01*
X158745136Y-155446453D01*
X158745137Y-155446451D01*
X158747430Y-155441811D01*
X158812370Y-155228069D01*
X158841529Y-155006590D01*
X158843156Y-154940000D01*
X158824852Y-154717361D01*
X158770431Y-154500702D01*
X158681354Y-154295840D01*
X158560014Y-154108277D01*
X158409670Y-153943051D01*
X158405619Y-153939852D01*
X158405615Y-153939848D01*
X158238414Y-153807800D01*
X158238410Y-153807798D01*
X158234359Y-153804598D01*
X158193053Y-153781796D01*
X158143084Y-153731364D01*
X158128312Y-153661921D01*
X158153428Y-153595516D01*
X158180780Y-153568909D01*
X158224603Y-153537650D01*
X158359860Y-153441173D01*
X158412156Y-153389060D01*
X158503616Y-153297918D01*
X158518096Y-153283489D01*
X158648453Y-153102077D01*
X158649776Y-153103028D01*
X158696645Y-153059857D01*
X158766580Y-153047625D01*
X158832026Y-153075144D01*
X158859875Y-153106994D01*
X158919987Y-153205088D01*
X159066250Y-153373938D01*
X159238126Y-153516632D01*
X159431000Y-153629338D01*
X159435825Y-153631180D01*
X159435826Y-153631181D01*
X159474437Y-153645925D01*
X159639692Y-153709030D01*
X159644760Y-153710061D01*
X159644763Y-153710062D01*
X159749466Y-153731364D01*
X159858597Y-153753567D01*
X159863772Y-153753757D01*
X159863774Y-153753757D01*
X160076673Y-153761564D01*
X160076677Y-153761564D01*
X160081837Y-153761753D01*
X160086957Y-153761097D01*
X160086959Y-153761097D01*
X160298288Y-153734025D01*
X160298289Y-153734025D01*
X160303416Y-153733368D01*
X160356890Y-153717325D01*
X160512429Y-153670661D01*
X160512434Y-153670659D01*
X160517384Y-153669174D01*
X160717994Y-153570896D01*
X160899860Y-153441173D01*
X160952156Y-153389060D01*
X161043616Y-153297918D01*
X161058096Y-153283489D01*
X161188453Y-153102077D01*
X161209320Y-153059857D01*
X161285136Y-152906453D01*
X161285137Y-152906451D01*
X161287430Y-152901811D01*
X161352370Y-152688069D01*
X161381529Y-152466590D01*
X161383156Y-152400000D01*
X161364852Y-152177361D01*
X161310431Y-151960702D01*
X161221354Y-151755840D01*
X161100014Y-151568277D01*
X160949670Y-151403051D01*
X160945616Y-151399849D01*
X160945615Y-151399848D01*
X160778414Y-151267800D01*
X160778410Y-151267798D01*
X160774359Y-151264598D01*
X160578789Y-151156638D01*
X160573920Y-151154914D01*
X160573916Y-151154912D01*
X160373087Y-151083795D01*
X160373083Y-151083794D01*
X160368212Y-151082069D01*
X160363119Y-151081162D01*
X160363116Y-151081161D01*
X160153373Y-151043800D01*
X160153367Y-151043799D01*
X160148284Y-151042894D01*
X160074452Y-151041992D01*
X159930081Y-151040228D01*
X159930079Y-151040228D01*
X159924911Y-151040165D01*
X159704091Y-151073955D01*
X159491756Y-151143357D01*
X159461443Y-151159137D01*
X159318000Y-151233809D01*
X159293607Y-151246507D01*
X159289474Y-151249610D01*
X159289471Y-151249612D01*
X159144310Y-151358602D01*
X159114965Y-151380635D01*
X159111393Y-151384373D01*
X159003729Y-151497037D01*
X158960629Y-151542138D01*
X158853201Y-151699621D01*
X158798293Y-151744621D01*
X158727768Y-151752792D01*
X158664021Y-151721538D01*
X158643324Y-151697054D01*
X158562822Y-151572617D01*
X158562820Y-151572614D01*
X158560014Y-151568277D01*
X158409670Y-151403051D01*
X158405616Y-151399849D01*
X158405615Y-151399848D01*
X158238414Y-151267800D01*
X158238410Y-151267798D01*
X158234359Y-151264598D01*
X158038789Y-151156638D01*
X158033920Y-151154914D01*
X158033916Y-151154912D01*
X157833087Y-151083795D01*
X157833083Y-151083794D01*
X157828212Y-151082069D01*
X157823119Y-151081162D01*
X157823116Y-151081161D01*
X157613373Y-151043800D01*
X157613367Y-151043799D01*
X157608284Y-151042894D01*
X157534452Y-151041992D01*
X157390081Y-151040228D01*
X157390079Y-151040228D01*
X157384911Y-151040165D01*
X157164091Y-151073955D01*
X156951756Y-151143357D01*
X156921443Y-151159137D01*
X156778000Y-151233809D01*
X156753607Y-151246507D01*
X156749474Y-151249610D01*
X156749471Y-151249612D01*
X156604310Y-151358602D01*
X156574965Y-151380635D01*
X156571393Y-151384373D01*
X156463729Y-151497037D01*
X156420629Y-151542138D01*
X156313201Y-151699621D01*
X156258293Y-151744621D01*
X156187768Y-151752792D01*
X156124021Y-151721538D01*
X156103324Y-151697054D01*
X156022822Y-151572617D01*
X156022820Y-151572614D01*
X156020014Y-151568277D01*
X155869670Y-151403051D01*
X155865616Y-151399849D01*
X155865615Y-151399848D01*
X155698414Y-151267800D01*
X155698410Y-151267798D01*
X155694359Y-151264598D01*
X155498789Y-151156638D01*
X155493920Y-151154914D01*
X155493916Y-151154912D01*
X155293087Y-151083795D01*
X155293083Y-151083794D01*
X155288212Y-151082069D01*
X155283119Y-151081162D01*
X155283116Y-151081161D01*
X155073373Y-151043800D01*
X155073367Y-151043799D01*
X155068284Y-151042894D01*
X154994452Y-151041992D01*
X154850081Y-151040228D01*
X154850079Y-151040228D01*
X154844911Y-151040165D01*
X154624091Y-151073955D01*
X154411756Y-151143357D01*
X154381443Y-151159137D01*
X154238000Y-151233809D01*
X154213607Y-151246507D01*
X154209474Y-151249610D01*
X154209471Y-151249612D01*
X154064310Y-151358602D01*
X154034965Y-151380635D01*
X154031393Y-151384373D01*
X153923729Y-151497037D01*
X153880629Y-151542138D01*
X153773201Y-151699621D01*
X153718293Y-151744621D01*
X153647768Y-151752792D01*
X153584021Y-151721538D01*
X153563324Y-151697054D01*
X153482822Y-151572617D01*
X153482820Y-151572614D01*
X153480014Y-151568277D01*
X153329670Y-151403051D01*
X153325616Y-151399849D01*
X153325615Y-151399848D01*
X153158414Y-151267800D01*
X153158410Y-151267798D01*
X153154359Y-151264598D01*
X152958789Y-151156638D01*
X152953920Y-151154914D01*
X152953916Y-151154912D01*
X152753087Y-151083795D01*
X152753083Y-151083794D01*
X152748212Y-151082069D01*
X152743119Y-151081162D01*
X152743116Y-151081161D01*
X152533373Y-151043800D01*
X152533367Y-151043799D01*
X152528284Y-151042894D01*
X152454452Y-151041992D01*
X152310081Y-151040228D01*
X152310079Y-151040228D01*
X152304911Y-151040165D01*
X152084091Y-151073955D01*
X151871756Y-151143357D01*
X151841443Y-151159137D01*
X151698000Y-151233809D01*
X151673607Y-151246507D01*
X151669474Y-151249610D01*
X151669471Y-151249612D01*
X151524310Y-151358602D01*
X151494965Y-151380635D01*
X151491393Y-151384373D01*
X151383729Y-151497037D01*
X151340629Y-151542138D01*
X151233201Y-151699621D01*
X151178293Y-151744621D01*
X151107768Y-151752792D01*
X151044021Y-151721538D01*
X151023324Y-151697054D01*
X150942822Y-151572617D01*
X150942820Y-151572614D01*
X150940014Y-151568277D01*
X150789670Y-151403051D01*
X150785616Y-151399849D01*
X150785615Y-151399848D01*
X150618414Y-151267800D01*
X150618410Y-151267798D01*
X150614359Y-151264598D01*
X150418789Y-151156638D01*
X150413920Y-151154914D01*
X150413916Y-151154912D01*
X150213087Y-151083795D01*
X150213083Y-151083794D01*
X150208212Y-151082069D01*
X150203119Y-151081162D01*
X150203116Y-151081161D01*
X149993373Y-151043800D01*
X149993367Y-151043799D01*
X149988284Y-151042894D01*
X149914452Y-151041992D01*
X149770081Y-151040228D01*
X149770079Y-151040228D01*
X149764911Y-151040165D01*
X149544091Y-151073955D01*
X149531532Y-151078060D01*
X149460568Y-151080210D01*
X149403294Y-151047389D01*
X143323952Y-144968047D01*
X143316412Y-144959761D01*
X143312300Y-144953282D01*
X143262648Y-144906656D01*
X143259807Y-144903902D01*
X143240070Y-144884165D01*
X143236873Y-144881685D01*
X143227851Y-144873980D01*
X143201400Y-144849141D01*
X143195621Y-144843714D01*
X143188675Y-144839895D01*
X143188672Y-144839893D01*
X143177866Y-144833952D01*
X143161347Y-144823101D01*
X143160883Y-144822741D01*
X143145341Y-144810686D01*
X143138072Y-144807541D01*
X143138068Y-144807538D01*
X143104763Y-144793126D01*
X143094113Y-144787909D01*
X143055360Y-144766605D01*
X143035737Y-144761567D01*
X143017034Y-144755163D01*
X143005720Y-144750267D01*
X143005719Y-144750267D01*
X142998445Y-144747119D01*
X142990622Y-144745880D01*
X142990612Y-144745877D01*
X142954776Y-144740201D01*
X142943156Y-144737795D01*
X142908011Y-144728772D01*
X142908010Y-144728772D01*
X142900330Y-144726800D01*
X142880076Y-144726800D01*
X142860365Y-144725249D01*
X142848186Y-144723320D01*
X142840357Y-144722080D01*
X142832465Y-144722826D01*
X142796339Y-144726241D01*
X142784481Y-144726800D01*
X142069500Y-144726800D01*
X142001379Y-144706798D01*
X141982153Y-144690457D01*
X141981880Y-144690760D01*
X141976968Y-144686337D01*
X141972553Y-144681434D01*
X141818052Y-144569182D01*
X141818264Y-144568891D01*
X141771838Y-144520202D01*
X141758400Y-144450489D01*
X141784786Y-144384578D01*
X141794735Y-144373369D01*
X142501260Y-143666845D01*
X143247700Y-142920405D01*
X143310012Y-142886379D01*
X143336795Y-142883500D01*
X157490933Y-142883500D01*
X157502116Y-142884027D01*
X157509609Y-142885702D01*
X157517535Y-142885453D01*
X157517536Y-142885453D01*
X157577686Y-142883562D01*
X157581645Y-142883500D01*
X157609556Y-142883500D01*
X157613491Y-142883003D01*
X157613556Y-142882995D01*
X157625393Y-142882062D01*
X157657651Y-142881048D01*
X157661670Y-142880922D01*
X157669589Y-142880673D01*
X157689043Y-142875021D01*
X157708400Y-142871013D01*
X157720630Y-142869468D01*
X157720631Y-142869468D01*
X157728497Y-142868474D01*
X157735868Y-142865555D01*
X157735870Y-142865555D01*
X157769612Y-142852196D01*
X157780842Y-142848351D01*
X157815683Y-142838229D01*
X157815684Y-142838229D01*
X157823293Y-142836018D01*
X157830112Y-142831985D01*
X157830117Y-142831983D01*
X157840728Y-142825707D01*
X157858476Y-142817012D01*
X157877317Y-142809552D01*
X157913087Y-142783564D01*
X157923007Y-142777048D01*
X157954235Y-142758580D01*
X157954238Y-142758578D01*
X157961062Y-142754542D01*
X157975383Y-142740221D01*
X157990417Y-142727380D01*
X158000394Y-142720131D01*
X158006807Y-142715472D01*
X158034998Y-142681395D01*
X158042988Y-142672616D01*
X158831485Y-141884119D01*
X158893797Y-141850093D01*
X158964612Y-141855158D01*
X159015815Y-141890715D01*
X159066250Y-141948938D01*
X159238126Y-142091632D01*
X159431000Y-142204338D01*
X159435825Y-142206180D01*
X159435826Y-142206181D01*
X159488900Y-142226448D01*
X159639692Y-142284030D01*
X159644760Y-142285061D01*
X159644763Y-142285062D01*
X159752017Y-142306883D01*
X159858597Y-142328567D01*
X159863772Y-142328757D01*
X159863774Y-142328757D01*
X160076673Y-142336564D01*
X160076677Y-142336564D01*
X160081837Y-142336753D01*
X160086957Y-142336097D01*
X160086959Y-142336097D01*
X160298288Y-142309025D01*
X160298289Y-142309025D01*
X160303416Y-142308368D01*
X160354700Y-142292982D01*
X160512429Y-142245661D01*
X160512434Y-142245659D01*
X160517384Y-142244174D01*
X160717994Y-142145896D01*
X160899860Y-142016173D01*
X161058096Y-141858489D01*
X161086756Y-141818605D01*
X161185435Y-141681277D01*
X161188453Y-141677077D01*
X161212221Y-141628987D01*
X161285136Y-141481453D01*
X161285137Y-141481451D01*
X161287430Y-141476811D01*
X161352370Y-141263069D01*
X161381529Y-141041590D01*
X161383156Y-140975000D01*
X161364852Y-140752361D01*
X161310431Y-140535702D01*
X161221354Y-140330840D01*
X161131983Y-140192693D01*
X161102822Y-140147617D01*
X161102820Y-140147614D01*
X161100014Y-140143277D01*
X160949670Y-139978051D01*
X160945619Y-139974852D01*
X160945615Y-139974848D01*
X160778414Y-139842800D01*
X160778410Y-139842798D01*
X160774359Y-139839598D01*
X160733053Y-139816796D01*
X160683084Y-139766364D01*
X160668312Y-139696921D01*
X160693428Y-139630516D01*
X160720780Y-139603909D01*
X160787060Y-139556632D01*
X160899860Y-139476173D01*
X160912579Y-139463499D01*
X161012242Y-139364183D01*
X161058096Y-139318489D01*
X161065418Y-139308300D01*
X161185435Y-139141277D01*
X161188453Y-139137077D01*
X161193991Y-139125873D01*
X161285136Y-138941453D01*
X161285137Y-138941451D01*
X161287430Y-138936811D01*
X161352370Y-138723069D01*
X161381529Y-138501590D01*
X161383156Y-138435000D01*
X161364852Y-138212361D01*
X161310431Y-137995702D01*
X161221354Y-137790840D01*
X161181906Y-137729862D01*
X161102822Y-137607617D01*
X161102820Y-137607614D01*
X161100014Y-137603277D01*
X160949670Y-137438051D01*
X160945619Y-137434852D01*
X160945615Y-137434848D01*
X160778414Y-137302800D01*
X160778410Y-137302798D01*
X160774359Y-137299598D01*
X160733053Y-137276796D01*
X160683084Y-137226364D01*
X160668312Y-137156921D01*
X160693428Y-137090516D01*
X160720780Y-137063909D01*
X160764603Y-137032650D01*
X160899860Y-136936173D01*
X161058096Y-136778489D01*
X161117594Y-136695689D01*
X161185435Y-136601277D01*
X161188453Y-136597077D01*
X161287430Y-136396811D01*
X161352370Y-136183069D01*
X161381529Y-135961590D01*
X161383156Y-135895000D01*
X161364852Y-135672361D01*
X161310431Y-135455702D01*
X161221354Y-135250840D01*
X161142561Y-135129044D01*
X161102822Y-135067617D01*
X161102820Y-135067614D01*
X161100014Y-135063277D01*
X161085328Y-135047137D01*
X160952798Y-134901488D01*
X160921746Y-134837642D01*
X160930141Y-134767143D01*
X160975317Y-134712375D01*
X161001761Y-134698706D01*
X161108297Y-134658767D01*
X161116705Y-134655615D01*
X161233261Y-134568261D01*
X161320615Y-134451705D01*
X161371745Y-134315316D01*
X161378500Y-134253134D01*
X161378500Y-132456866D01*
X161371745Y-132394684D01*
X161320615Y-132258295D01*
X161233261Y-132141739D01*
X161116705Y-132054385D01*
X160980316Y-132003255D01*
X160918134Y-131996500D01*
X159121866Y-131996500D01*
X159059684Y-132003255D01*
X158923295Y-132054385D01*
X158806739Y-132141739D01*
X158719385Y-132258295D01*
X158668255Y-132394684D01*
X158661500Y-132456866D01*
X158661500Y-134253134D01*
X158668255Y-134315316D01*
X158719385Y-134451705D01*
X158806739Y-134568261D01*
X158923295Y-134655615D01*
X158931704Y-134658767D01*
X158931705Y-134658768D01*
X159040451Y-134699535D01*
X159097216Y-134742176D01*
X159121916Y-134808738D01*
X159106709Y-134878087D01*
X159087316Y-134904568D01*
X159059504Y-134933672D01*
X158960629Y-135037138D01*
X158957715Y-135041410D01*
X158957714Y-135041411D01*
X158899210Y-135127175D01*
X158834743Y-135221680D01*
X158806057Y-135283479D01*
X158747309Y-135410042D01*
X158740688Y-135424305D01*
X158680989Y-135639570D01*
X158657251Y-135861695D01*
X158657548Y-135866848D01*
X158657548Y-135866851D01*
X158663011Y-135961590D01*
X158670110Y-136084715D01*
X158671247Y-136089761D01*
X158671248Y-136089767D01*
X158682874Y-136141354D01*
X158719222Y-136302639D01*
X158803266Y-136509616D01*
X158919987Y-136700088D01*
X159066250Y-136868938D01*
X159238126Y-137011632D01*
X159308595Y-137052811D01*
X159311445Y-137054476D01*
X159360169Y-137106114D01*
X159373240Y-137175897D01*
X159346509Y-137241669D01*
X159306055Y-137275027D01*
X159293607Y-137281507D01*
X159289474Y-137284610D01*
X159289471Y-137284612D01*
X159119100Y-137412530D01*
X159114965Y-137415635D01*
X159011617Y-137523782D01*
X158950095Y-137559211D01*
X158879183Y-137555754D01*
X158831430Y-137525825D01*
X155505452Y-134199847D01*
X155497912Y-134191561D01*
X155493800Y-134185082D01*
X155444148Y-134138456D01*
X155441307Y-134135702D01*
X155421570Y-134115965D01*
X155418373Y-134113485D01*
X155409351Y-134105780D01*
X155382900Y-134080941D01*
X155377121Y-134075514D01*
X155370175Y-134071695D01*
X155370172Y-134071693D01*
X155359366Y-134065752D01*
X155342847Y-134054901D01*
X155336848Y-134050248D01*
X155326841Y-134042486D01*
X155319572Y-134039341D01*
X155319568Y-134039338D01*
X155286263Y-134024926D01*
X155275613Y-134019709D01*
X155236860Y-133998405D01*
X155217237Y-133993367D01*
X155198534Y-133986963D01*
X155187220Y-133982067D01*
X155187219Y-133982067D01*
X155179945Y-133978919D01*
X155172122Y-133977680D01*
X155172112Y-133977677D01*
X155136276Y-133972001D01*
X155124656Y-133969595D01*
X155089511Y-133960572D01*
X155089510Y-133960572D01*
X155081830Y-133958600D01*
X155061576Y-133958600D01*
X155041865Y-133957049D01*
X155029686Y-133955120D01*
X155021857Y-133953880D01*
X155013965Y-133954626D01*
X154977839Y-133958041D01*
X154965981Y-133958600D01*
X145028500Y-133958600D01*
X144960379Y-133938598D01*
X144941153Y-133922257D01*
X144940880Y-133922560D01*
X144935968Y-133918137D01*
X144931553Y-133913234D01*
X144777052Y-133800982D01*
X144771024Y-133798298D01*
X144771022Y-133798297D01*
X144608619Y-133725991D01*
X144608618Y-133725991D01*
X144602588Y-133723306D01*
X144509187Y-133703453D01*
X144422244Y-133684972D01*
X144422239Y-133684972D01*
X144415787Y-133683600D01*
X144224813Y-133683600D01*
X144218361Y-133684972D01*
X144218356Y-133684972D01*
X144131413Y-133703453D01*
X144038012Y-133723306D01*
X144031982Y-133725991D01*
X144031981Y-133725991D01*
X143869578Y-133798297D01*
X143869576Y-133798298D01*
X143863548Y-133800982D01*
X143709047Y-133913234D01*
X143704626Y-133918144D01*
X143704625Y-133918145D01*
X143595503Y-134039338D01*
X143581260Y-134055156D01*
X143566373Y-134080941D01*
X143497149Y-134200841D01*
X143485773Y-134220544D01*
X143426758Y-134402172D01*
X143426068Y-134408733D01*
X143426068Y-134408735D01*
X143421552Y-134451705D01*
X143406796Y-134592100D01*
X143407486Y-134598665D01*
X143425194Y-134767143D01*
X143426758Y-134782028D01*
X143485773Y-134963656D01*
X143489076Y-134969378D01*
X143489077Y-134969379D01*
X143499925Y-134988168D01*
X143581260Y-135129044D01*
X143585678Y-135133951D01*
X143585679Y-135133952D01*
X143690925Y-135250840D01*
X143709047Y-135270966D01*
X143808143Y-135342964D01*
X143853812Y-135376144D01*
X143863548Y-135383218D01*
X143869576Y-135385902D01*
X143869578Y-135385903D01*
X144031981Y-135458209D01*
X144038012Y-135460894D01*
X144128326Y-135480091D01*
X144218356Y-135499228D01*
X144218361Y-135499228D01*
X144224813Y-135500600D01*
X144415787Y-135500600D01*
X144422239Y-135499228D01*
X144422244Y-135499228D01*
X144512274Y-135480091D01*
X144602588Y-135460894D01*
X144608619Y-135458209D01*
X144771022Y-135385903D01*
X144771024Y-135385902D01*
X144777052Y-135383218D01*
X144786789Y-135376144D01*
X144917330Y-135281300D01*
X144931553Y-135270966D01*
X144935968Y-135266063D01*
X144940880Y-135261640D01*
X144942005Y-135262889D01*
X144995314Y-135230049D01*
X145028500Y-135225600D01*
X148375500Y-135225600D01*
X148443621Y-135245602D01*
X148490114Y-135299258D01*
X148501500Y-135351600D01*
X148501500Y-136798134D01*
X148508255Y-136860316D01*
X148559385Y-136996705D01*
X148646739Y-137113261D01*
X148763295Y-137200615D01*
X148771704Y-137203767D01*
X148771705Y-137203768D01*
X148880451Y-137244535D01*
X148937216Y-137287176D01*
X148961916Y-137353738D01*
X148946709Y-137423087D01*
X148927316Y-137449568D01*
X148822539Y-137559211D01*
X148800629Y-137582138D01*
X148674743Y-137766680D01*
X148659003Y-137800590D01*
X148589867Y-137949531D01*
X148580688Y-137969305D01*
X148520989Y-138184570D01*
X148497251Y-138406695D01*
X148497548Y-138411848D01*
X148497548Y-138411851D01*
X148502914Y-138504908D01*
X148510110Y-138629715D01*
X148511247Y-138634761D01*
X148511248Y-138634767D01*
X148532265Y-138728023D01*
X148559222Y-138847639D01*
X148601430Y-138951586D01*
X148639802Y-139046084D01*
X148643266Y-139054616D01*
X148669675Y-139097711D01*
X148757206Y-139240549D01*
X148759987Y-139245088D01*
X148906250Y-139413938D01*
X149053610Y-139536279D01*
X149068123Y-139548327D01*
X149078126Y-139556632D01*
X149123065Y-139582892D01*
X149151445Y-139599476D01*
X149200169Y-139651114D01*
X149213240Y-139720897D01*
X149186509Y-139786669D01*
X149146055Y-139820027D01*
X149133607Y-139826507D01*
X149129474Y-139829610D01*
X149129471Y-139829612D01*
X148959196Y-139957458D01*
X148954965Y-139960635D01*
X148800629Y-140122138D01*
X148674743Y-140306680D01*
X148641188Y-140378968D01*
X148595965Y-140476394D01*
X148580688Y-140509305D01*
X148520989Y-140724570D01*
X148497251Y-140946695D01*
X148497548Y-140951848D01*
X148497548Y-140951851D01*
X148502914Y-141044908D01*
X148510110Y-141169715D01*
X148511247Y-141174761D01*
X148511248Y-141174767D01*
X148532265Y-141268023D01*
X148559222Y-141387639D01*
X148561164Y-141392422D01*
X148561167Y-141392431D01*
X148581740Y-141443095D01*
X148588837Y-141513736D01*
X148556615Y-141577000D01*
X148495306Y-141612801D01*
X148464998Y-141616500D01*
X143100967Y-141616500D01*
X143089784Y-141615973D01*
X143082291Y-141614298D01*
X143074365Y-141614547D01*
X143074364Y-141614547D01*
X143014214Y-141616438D01*
X143010255Y-141616500D01*
X142982344Y-141616500D01*
X142978410Y-141616997D01*
X142978409Y-141616997D01*
X142978344Y-141617005D01*
X142966507Y-141617938D01*
X142934249Y-141618952D01*
X142930230Y-141619078D01*
X142922311Y-141619327D01*
X142902857Y-141624979D01*
X142883500Y-141628987D01*
X142871270Y-141630532D01*
X142871269Y-141630532D01*
X142863403Y-141631526D01*
X142856032Y-141634445D01*
X142856030Y-141634445D01*
X142822288Y-141647804D01*
X142811058Y-141651649D01*
X142776217Y-141661771D01*
X142776216Y-141661771D01*
X142768607Y-141663982D01*
X142761788Y-141668015D01*
X142761783Y-141668017D01*
X142751172Y-141674293D01*
X142733424Y-141682988D01*
X142714583Y-141690448D01*
X142708167Y-141695110D01*
X142708166Y-141695110D01*
X142678813Y-141716436D01*
X142668893Y-141722952D01*
X142637665Y-141741420D01*
X142637662Y-141741422D01*
X142630838Y-141745458D01*
X142616517Y-141759779D01*
X142601484Y-141772619D01*
X142585093Y-141784528D01*
X142580042Y-141790634D01*
X142556902Y-141818605D01*
X142548912Y-141827384D01*
X139824800Y-144551495D01*
X139762488Y-144585521D01*
X139735705Y-144588400D01*
X139679813Y-144588400D01*
X139673361Y-144589772D01*
X139673356Y-144589772D01*
X139601552Y-144605035D01*
X139493012Y-144628106D01*
X139486982Y-144630791D01*
X139486981Y-144630791D01*
X139324578Y-144703097D01*
X139324576Y-144703098D01*
X139318548Y-144705782D01*
X139313210Y-144709660D01*
X139313207Y-144709662D01*
X139309398Y-144712430D01*
X139242530Y-144736288D01*
X139173379Y-144720206D01*
X139126219Y-144673493D01*
X139052266Y-144545404D01*
X139038440Y-144521456D01*
X139026774Y-144508499D01*
X138915075Y-144384445D01*
X138915074Y-144384444D01*
X138910653Y-144379534D01*
X138756152Y-144267282D01*
X138750124Y-144264598D01*
X138750122Y-144264597D01*
X138587719Y-144192291D01*
X138587718Y-144192291D01*
X138581688Y-144189606D01*
X138488287Y-144169753D01*
X138401344Y-144151272D01*
X138401339Y-144151272D01*
X138394887Y-144149900D01*
X138203913Y-144149900D01*
X138197461Y-144151272D01*
X138197456Y-144151272D01*
X138067497Y-144178896D01*
X137996706Y-144173494D01*
X137940073Y-144130677D01*
X137915580Y-144064039D01*
X137915300Y-144055649D01*
X137915300Y-143429237D01*
X137935302Y-143361116D01*
X137988958Y-143314623D01*
X138059232Y-143304519D01*
X138067495Y-143305990D01*
X138069551Y-143306427D01*
X138069556Y-143306428D01*
X138076013Y-143307800D01*
X138266987Y-143307800D01*
X138273439Y-143306428D01*
X138273444Y-143306428D01*
X138360387Y-143287947D01*
X138453788Y-143268094D01*
X138459819Y-143265409D01*
X138622222Y-143193103D01*
X138622224Y-143193102D01*
X138628252Y-143190418D01*
X138782753Y-143078166D01*
X138787175Y-143073255D01*
X138906121Y-142941152D01*
X138906122Y-142941151D01*
X138910540Y-142936244D01*
X138983686Y-142809552D01*
X139002723Y-142776579D01*
X139002724Y-142776578D01*
X139006027Y-142770856D01*
X139065042Y-142589228D01*
X139066059Y-142579558D01*
X139079817Y-142448647D01*
X139082407Y-142424006D01*
X139109420Y-142358350D01*
X139118622Y-142348082D01*
X142144353Y-139322352D01*
X142152639Y-139314812D01*
X142159118Y-139310700D01*
X142168464Y-139300748D01*
X142205743Y-139261049D01*
X142208498Y-139258207D01*
X142228235Y-139238470D01*
X142230715Y-139235273D01*
X142238420Y-139226251D01*
X142263259Y-139199800D01*
X142268686Y-139194021D01*
X142272505Y-139187075D01*
X142272507Y-139187072D01*
X142278448Y-139176266D01*
X142289299Y-139159747D01*
X142296858Y-139150001D01*
X142301714Y-139143741D01*
X142304859Y-139136472D01*
X142304862Y-139136468D01*
X142319274Y-139103163D01*
X142324491Y-139092513D01*
X142345795Y-139053760D01*
X142350833Y-139034137D01*
X142357237Y-139015434D01*
X142362133Y-139004120D01*
X142362133Y-139004119D01*
X142365281Y-138996845D01*
X142366520Y-138989022D01*
X142366523Y-138989012D01*
X142372199Y-138953176D01*
X142374605Y-138941556D01*
X142383628Y-138906411D01*
X142383628Y-138906410D01*
X142385600Y-138898730D01*
X142385600Y-138878476D01*
X142387151Y-138858765D01*
X142389080Y-138846586D01*
X142390320Y-138838757D01*
X142386159Y-138794738D01*
X142385600Y-138782881D01*
X142385600Y-133615424D01*
X142405602Y-133547303D01*
X142417958Y-133531121D01*
X142491140Y-133449844D01*
X142586627Y-133284456D01*
X142645642Y-133102828D01*
X142665604Y-132912900D01*
X142645642Y-132722972D01*
X142586627Y-132541344D01*
X142491140Y-132375956D01*
X142378728Y-132251109D01*
X142367775Y-132238945D01*
X142367774Y-132238944D01*
X142363353Y-132234034D01*
X142246203Y-132148919D01*
X142214194Y-132125663D01*
X142214193Y-132125662D01*
X142208852Y-132121782D01*
X142202824Y-132119098D01*
X142202822Y-132119097D01*
X142040419Y-132046791D01*
X142040418Y-132046791D01*
X142034388Y-132044106D01*
X141940988Y-132024253D01*
X141854044Y-132005772D01*
X141854039Y-132005772D01*
X141847587Y-132004400D01*
X141656613Y-132004400D01*
X141650161Y-132005772D01*
X141650156Y-132005772D01*
X141563212Y-132024253D01*
X141469812Y-132044106D01*
X141463782Y-132046791D01*
X141463781Y-132046791D01*
X141301378Y-132119097D01*
X141301376Y-132119098D01*
X141295348Y-132121782D01*
X141290007Y-132125662D01*
X141290006Y-132125663D01*
X141257997Y-132148919D01*
X141140847Y-132234034D01*
X141136426Y-132238944D01*
X141136425Y-132238945D01*
X141125473Y-132251109D01*
X141013060Y-132375956D01*
X140917573Y-132541344D01*
X140858558Y-132722972D01*
X140838596Y-132912900D01*
X140858558Y-133102828D01*
X140917573Y-133284456D01*
X141013060Y-133449844D01*
X141086237Y-133531115D01*
X141116953Y-133595121D01*
X141118600Y-133615424D01*
X141118600Y-138504106D01*
X141098598Y-138572227D01*
X141081695Y-138593201D01*
X138309795Y-141365100D01*
X138247483Y-141399126D01*
X138176667Y-141394061D01*
X138119832Y-141351514D01*
X138095021Y-141284994D01*
X138094700Y-141276005D01*
X138094700Y-135498767D01*
X138095227Y-135487584D01*
X138096902Y-135480091D01*
X138094762Y-135412014D01*
X138094700Y-135408055D01*
X138094700Y-135380144D01*
X138094195Y-135376144D01*
X138093262Y-135364301D01*
X138092122Y-135328030D01*
X138091873Y-135320111D01*
X138086221Y-135300657D01*
X138082213Y-135281300D01*
X138080668Y-135269070D01*
X138080668Y-135269069D01*
X138079674Y-135261203D01*
X138075571Y-135250840D01*
X138063396Y-135220088D01*
X138059551Y-135208858D01*
X138049429Y-135174017D01*
X138049429Y-135174016D01*
X138047218Y-135166407D01*
X138043185Y-135159588D01*
X138043183Y-135159583D01*
X138036907Y-135148972D01*
X138028212Y-135131224D01*
X138020752Y-135112383D01*
X137994764Y-135076613D01*
X137988248Y-135066693D01*
X137969780Y-135035465D01*
X137969778Y-135035462D01*
X137965742Y-135028638D01*
X137951421Y-135014317D01*
X137938580Y-134999283D01*
X137931331Y-134989306D01*
X137926672Y-134982893D01*
X137892595Y-134954702D01*
X137883816Y-134946712D01*
X131422200Y-128485095D01*
X131388174Y-128422783D01*
X131393239Y-128351968D01*
X131435786Y-128295132D01*
X131502306Y-128270321D01*
X131511295Y-128270000D01*
X162434000Y-128270000D01*
X162502121Y-128290002D01*
G37*
%TD.AperFunction*%
%TA.AperFunction,Conductor*%
G36*
X128416227Y-139328302D02*
G01*
X128437201Y-139345205D01*
X128979498Y-139887503D01*
X129517248Y-140425253D01*
X129524788Y-140433539D01*
X129528900Y-140440018D01*
X129534677Y-140445443D01*
X129578551Y-140486643D01*
X129581393Y-140489398D01*
X129601130Y-140509135D01*
X129604327Y-140511615D01*
X129613347Y-140519318D01*
X129645579Y-140549586D01*
X129652525Y-140553405D01*
X129652528Y-140553407D01*
X129663334Y-140559348D01*
X129679853Y-140570199D01*
X129695859Y-140582614D01*
X129703128Y-140585759D01*
X129703132Y-140585762D01*
X129736437Y-140600174D01*
X129747087Y-140605391D01*
X129785840Y-140626695D01*
X129793515Y-140628666D01*
X129793516Y-140628666D01*
X129805462Y-140631733D01*
X129824167Y-140638137D01*
X129842755Y-140646181D01*
X129850578Y-140647420D01*
X129850588Y-140647423D01*
X129886424Y-140653099D01*
X129898044Y-140655505D01*
X129933189Y-140664528D01*
X129940870Y-140666500D01*
X129961124Y-140666500D01*
X129980834Y-140668051D01*
X130000843Y-140671220D01*
X130008735Y-140670474D01*
X130044861Y-140667059D01*
X130056719Y-140666500D01*
X132758205Y-140666500D01*
X132826326Y-140686502D01*
X132847303Y-140703407D01*
X132868498Y-140724603D01*
X132902521Y-140786916D01*
X132905400Y-140813696D01*
X132905400Y-144371206D01*
X132885398Y-144439327D01*
X132868495Y-144460301D01*
X129736974Y-147591821D01*
X126607747Y-150721048D01*
X126599461Y-150728588D01*
X126592982Y-150732700D01*
X126587557Y-150738477D01*
X126546357Y-150782351D01*
X126543602Y-150785193D01*
X126525995Y-150802800D01*
X126463683Y-150836826D01*
X126392868Y-150831761D01*
X126336032Y-150789214D01*
X126311221Y-150722694D01*
X126310900Y-150713705D01*
X126310900Y-146356367D01*
X126311427Y-146345184D01*
X126313102Y-146337691D01*
X126310962Y-146269614D01*
X126310900Y-146265655D01*
X126310900Y-146237744D01*
X126310395Y-146233744D01*
X126309462Y-146221901D01*
X126308322Y-146185629D01*
X126308073Y-146177710D01*
X126302422Y-146158258D01*
X126298414Y-146138906D01*
X126296867Y-146126663D01*
X126295874Y-146118803D01*
X126292956Y-146111432D01*
X126279600Y-146077697D01*
X126275755Y-146066470D01*
X126267700Y-146038746D01*
X126263418Y-146024007D01*
X126253107Y-146006572D01*
X126244412Y-145988824D01*
X126236952Y-145969983D01*
X126215368Y-145940274D01*
X126210964Y-145934213D01*
X126204448Y-145924293D01*
X126185980Y-145893065D01*
X126185978Y-145893062D01*
X126181942Y-145886238D01*
X126167621Y-145871917D01*
X126154780Y-145856883D01*
X126147532Y-145846907D01*
X126142872Y-145840493D01*
X126139364Y-145837591D01*
X126107991Y-145775581D01*
X126106582Y-145765848D01*
X126106483Y-145764900D01*
X126094880Y-145654509D01*
X126090532Y-145613135D01*
X126090532Y-145613133D01*
X126089842Y-145606572D01*
X126030827Y-145424944D01*
X125935340Y-145259556D01*
X125842082Y-145155983D01*
X125811366Y-145091976D01*
X125820131Y-145021523D01*
X125846625Y-144982579D01*
X127074699Y-143754505D01*
X127137011Y-143720479D01*
X127163794Y-143717600D01*
X128360400Y-143717600D01*
X128428521Y-143737602D01*
X128447747Y-143753943D01*
X128448020Y-143753640D01*
X128452932Y-143758063D01*
X128457347Y-143762966D01*
X128611848Y-143875218D01*
X128617876Y-143877902D01*
X128617878Y-143877903D01*
X128780281Y-143950209D01*
X128786312Y-143952894D01*
X128879713Y-143972747D01*
X128966656Y-143991228D01*
X128966661Y-143991228D01*
X128973113Y-143992600D01*
X129164087Y-143992600D01*
X129170539Y-143991228D01*
X129170544Y-143991228D01*
X129257487Y-143972747D01*
X129350888Y-143952894D01*
X129356919Y-143950209D01*
X129519322Y-143877903D01*
X129519324Y-143877902D01*
X129525352Y-143875218D01*
X129679853Y-143762966D01*
X129702691Y-143737602D01*
X129803221Y-143625952D01*
X129803222Y-143625951D01*
X129807640Y-143621044D01*
X129903127Y-143455656D01*
X129962142Y-143274028D01*
X129970648Y-143193103D01*
X129981414Y-143090665D01*
X129982104Y-143084100D01*
X129962142Y-142894172D01*
X129903127Y-142712544D01*
X129807640Y-142547156D01*
X129791481Y-142529209D01*
X129684275Y-142410145D01*
X129684274Y-142410144D01*
X129679853Y-142405234D01*
X129525352Y-142292982D01*
X129519324Y-142290298D01*
X129519322Y-142290297D01*
X129356919Y-142217991D01*
X129356918Y-142217991D01*
X129350888Y-142215306D01*
X129257487Y-142195453D01*
X129170544Y-142176972D01*
X129170539Y-142176972D01*
X129164087Y-142175600D01*
X128973113Y-142175600D01*
X128966661Y-142176972D01*
X128966656Y-142176972D01*
X128879713Y-142195453D01*
X128786312Y-142215306D01*
X128780282Y-142217991D01*
X128780281Y-142217991D01*
X128617878Y-142290297D01*
X128617876Y-142290298D01*
X128611848Y-142292982D01*
X128606507Y-142296862D01*
X128606506Y-142296863D01*
X128536010Y-142348082D01*
X128457347Y-142405234D01*
X128452932Y-142410137D01*
X128448020Y-142414560D01*
X128446895Y-142413311D01*
X128393586Y-142446151D01*
X128360400Y-142450600D01*
X126927967Y-142450600D01*
X126916784Y-142450073D01*
X126909291Y-142448398D01*
X126901365Y-142448647D01*
X126901364Y-142448647D01*
X126841214Y-142450538D01*
X126837255Y-142450600D01*
X126809344Y-142450600D01*
X126805410Y-142451097D01*
X126805409Y-142451097D01*
X126805344Y-142451105D01*
X126793507Y-142452038D01*
X126761690Y-142453038D01*
X126757229Y-142453178D01*
X126749310Y-142453427D01*
X126731654Y-142458556D01*
X126729858Y-142459078D01*
X126710506Y-142463086D01*
X126703435Y-142463980D01*
X126690403Y-142465626D01*
X126683034Y-142468543D01*
X126683032Y-142468544D01*
X126649297Y-142481900D01*
X126638069Y-142485745D01*
X126595607Y-142498082D01*
X126588785Y-142502116D01*
X126588779Y-142502119D01*
X126578168Y-142508394D01*
X126560418Y-142517090D01*
X126548956Y-142521628D01*
X126548951Y-142521631D01*
X126541583Y-142524548D01*
X126535168Y-142529209D01*
X126505825Y-142550527D01*
X126495907Y-142557043D01*
X126477219Y-142568095D01*
X126457837Y-142579558D01*
X126443513Y-142593882D01*
X126428481Y-142606721D01*
X126412093Y-142618628D01*
X126399129Y-142634299D01*
X126383912Y-142652693D01*
X126375922Y-142661473D01*
X125804705Y-143232690D01*
X125742393Y-143266716D01*
X125671578Y-143261651D01*
X125614742Y-143219104D01*
X125589931Y-143152584D01*
X125595777Y-143104659D01*
X125635402Y-142982706D01*
X125637442Y-142976428D01*
X125641666Y-142936244D01*
X125656714Y-142793065D01*
X125657404Y-142786500D01*
X125649090Y-142707400D01*
X125638132Y-142603135D01*
X125638132Y-142603133D01*
X125637442Y-142596572D01*
X125578427Y-142414944D01*
X125570582Y-142401355D01*
X125532905Y-142336097D01*
X125482940Y-142249556D01*
X125402712Y-142160453D01*
X125371996Y-142096448D01*
X125380760Y-142025994D01*
X125407254Y-141987050D01*
X126841299Y-140553005D01*
X126903611Y-140518979D01*
X126930394Y-140516100D01*
X126986287Y-140516100D01*
X126992739Y-140514728D01*
X126992744Y-140514728D01*
X127079687Y-140496247D01*
X127173088Y-140476394D01*
X127195479Y-140466425D01*
X127341522Y-140401403D01*
X127341524Y-140401402D01*
X127347552Y-140398718D01*
X127360953Y-140388982D01*
X127409120Y-140353986D01*
X127502053Y-140286466D01*
X127534485Y-140250447D01*
X127625421Y-140149452D01*
X127625422Y-140149451D01*
X127629840Y-140144544D01*
X127725327Y-139979156D01*
X127784342Y-139797528D01*
X127785484Y-139786669D01*
X127803614Y-139614165D01*
X127804304Y-139607600D01*
X127790108Y-139472529D01*
X127787474Y-139447470D01*
X127800246Y-139377632D01*
X127848748Y-139325785D01*
X127912784Y-139308300D01*
X128348106Y-139308300D01*
X128416227Y-139328302D01*
G37*
%TD.AperFunction*%
%TA.AperFunction,Conductor*%
G36*
X125202551Y-137882177D02*
G01*
X125218354Y-137903842D01*
X125266160Y-137986644D01*
X125270578Y-137991551D01*
X125270579Y-137991552D01*
X125354413Y-138084659D01*
X125393947Y-138128566D01*
X125548448Y-138240818D01*
X125554476Y-138243502D01*
X125554478Y-138243503D01*
X125716881Y-138315809D01*
X125722912Y-138318494D01*
X125816312Y-138338347D01*
X125903256Y-138356828D01*
X125903261Y-138356828D01*
X125909713Y-138358200D01*
X126100687Y-138358200D01*
X126107139Y-138356828D01*
X126107144Y-138356828D01*
X126281039Y-138319865D01*
X126281041Y-138319864D01*
X126287488Y-138318494D01*
X126287685Y-138319422D01*
X126352861Y-138317562D01*
X126409921Y-138350326D01*
X126610267Y-138550672D01*
X126644293Y-138612984D01*
X126639228Y-138683799D01*
X126596681Y-138740635D01*
X126572421Y-138754874D01*
X126440078Y-138813797D01*
X126440076Y-138813798D01*
X126434048Y-138816482D01*
X126428707Y-138820362D01*
X126428706Y-138820363D01*
X126391434Y-138847443D01*
X126279547Y-138928734D01*
X126275126Y-138933644D01*
X126275125Y-138933645D01*
X126160724Y-139060701D01*
X126151760Y-139070656D01*
X126116090Y-139132438D01*
X126077199Y-139199800D01*
X126056273Y-139236044D01*
X125997258Y-139417672D01*
X125996568Y-139424233D01*
X125996568Y-139424235D01*
X125979893Y-139582892D01*
X125952880Y-139648549D01*
X125943678Y-139658817D01*
X120286111Y-145316384D01*
X120223799Y-145350410D01*
X120152984Y-145345345D01*
X120103381Y-145311601D01*
X120085853Y-145292134D01*
X119931352Y-145179882D01*
X119838051Y-145138342D01*
X119783955Y-145092362D01*
X119763300Y-145023235D01*
X119763300Y-138210100D01*
X119783302Y-138141979D01*
X119836958Y-138095486D01*
X119889300Y-138084100D01*
X124471833Y-138084100D01*
X124483016Y-138084627D01*
X124490509Y-138086302D01*
X124498435Y-138086053D01*
X124498436Y-138086053D01*
X124558586Y-138084162D01*
X124562545Y-138084100D01*
X124590456Y-138084100D01*
X124594391Y-138083603D01*
X124594456Y-138083595D01*
X124606293Y-138082662D01*
X124638551Y-138081648D01*
X124642570Y-138081522D01*
X124650489Y-138081273D01*
X124669943Y-138075621D01*
X124689300Y-138071613D01*
X124701530Y-138070068D01*
X124701531Y-138070068D01*
X124709397Y-138069074D01*
X124716768Y-138066155D01*
X124716770Y-138066155D01*
X124750512Y-138052796D01*
X124761742Y-138048951D01*
X124796583Y-138038829D01*
X124796584Y-138038829D01*
X124804193Y-138036618D01*
X124811012Y-138032585D01*
X124811017Y-138032583D01*
X124821628Y-138026307D01*
X124839376Y-138017612D01*
X124858217Y-138010152D01*
X124890574Y-137986644D01*
X124893987Y-137984164D01*
X124903907Y-137977648D01*
X124935135Y-137959180D01*
X124935138Y-137959178D01*
X124941962Y-137955142D01*
X124956283Y-137940821D01*
X124971317Y-137927980D01*
X124987707Y-137916072D01*
X124992757Y-137909968D01*
X124992759Y-137909966D01*
X125012151Y-137886525D01*
X125070985Y-137846788D01*
X125141964Y-137845167D01*
X125202551Y-137882177D01*
G37*
%TD.AperFunction*%
%TD*%
M02*
