%TF.GenerationSoftware,KiCad,Pcbnew,(6.0.6-0)*%
%TF.CreationDate,2022-10-10T02:33:12+09:00*%
%TF.ProjectId,A2E_Test,4132455f-5465-4737-942e-6b696361645f,rev?*%
%TF.SameCoordinates,Original*%
%TF.FileFunction,Soldermask,Bot*%
%TF.FilePolarity,Negative*%
%FSLAX46Y46*%
G04 Gerber Fmt 4.6, Leading zero omitted, Abs format (unit mm)*
G04 Created by KiCad (PCBNEW (6.0.6-0)) date 2022-10-10 02:33:12*
%MOMM*%
%LPD*%
G01*
G04 APERTURE LIST*
%ADD10R,1.700000X1.700000*%
%ADD11O,1.700000X1.700000*%
%ADD12R,1.524000X7.620000*%
G04 APERTURE END LIST*
D10*
%TO.C,J2*%
X99060000Y-152400000D03*
D11*
X101600000Y-152400000D03*
X104140000Y-152400000D03*
X106680000Y-152400000D03*
X109220000Y-152400000D03*
X111760000Y-152400000D03*
X114300000Y-152400000D03*
X116840000Y-152400000D03*
X119380000Y-152400000D03*
X121920000Y-152400000D03*
X124460000Y-152400000D03*
X127000000Y-152400000D03*
X129540000Y-152400000D03*
X132080000Y-152400000D03*
X134620000Y-152400000D03*
X137160000Y-152400000D03*
X139700000Y-152400000D03*
X142240000Y-152400000D03*
X144780000Y-152400000D03*
X147320000Y-152400000D03*
X149860000Y-152400000D03*
X152400000Y-152400000D03*
X154940000Y-152400000D03*
X157480000Y-152400000D03*
X160020000Y-152400000D03*
X160020000Y-154940000D03*
X157480000Y-154940000D03*
X154940000Y-154940000D03*
X152400000Y-154940000D03*
X149860000Y-154940000D03*
X147320000Y-154940000D03*
X144780000Y-154940000D03*
X142240000Y-154940000D03*
X139700000Y-154940000D03*
X137160000Y-154940000D03*
X134620000Y-154940000D03*
X132080000Y-154940000D03*
X129540000Y-154940000D03*
X127000000Y-154940000D03*
X124460000Y-154940000D03*
X121920000Y-154940000D03*
X119380000Y-154940000D03*
X116840000Y-154940000D03*
X114300000Y-154940000D03*
X111760000Y-154940000D03*
X109220000Y-154940000D03*
X106680000Y-154940000D03*
X104140000Y-154940000D03*
X101600000Y-154940000D03*
X99060000Y-154940000D03*
%TD*%
D10*
%TO.C,J4*%
X160020000Y-133355000D03*
D11*
X160020000Y-135895000D03*
X160020000Y-138435000D03*
X160020000Y-140975000D03*
X160020000Y-143515000D03*
%TD*%
D10*
%TO.C,J3*%
X149860000Y-135900000D03*
D11*
X149860000Y-138440000D03*
X149860000Y-140980000D03*
X149860000Y-143520000D03*
%TD*%
D12*
%TO.C,J1*%
X160020000Y-165100000D03*
X157480000Y-165100000D03*
X154940000Y-165100000D03*
X152400000Y-165100000D03*
X149860000Y-165100000D03*
X147320000Y-165100000D03*
X144780000Y-165100000D03*
X142240000Y-165100000D03*
X139700000Y-165100000D03*
X137160000Y-165100000D03*
X134620000Y-165100000D03*
X132080000Y-165100000D03*
X129540000Y-165100000D03*
X127000000Y-165100000D03*
X124460000Y-165100000D03*
X121920000Y-165100000D03*
X119380000Y-165100000D03*
X116840000Y-165100000D03*
X114300000Y-165100000D03*
X111760000Y-165100000D03*
X109220000Y-165100000D03*
X106680000Y-165100000D03*
X104140000Y-165100000D03*
X101600000Y-165100000D03*
X99060000Y-165100000D03*
%TD*%
M02*
