M48
; DRILL file {KiCad (6.0.6-0)} date Monday, 10 October 2022 at 02:33:14
; FORMAT={-:-/ absolute / inch / decimal}
; #@! TF.CreationDate,2022-10-10T02:33:14+09:00
; #@! TF.GenerationSoftware,Kicad,Pcbnew,(6.0.6-0)
; #@! TF.FileFunction,MixedPlating,1,2
FMAT,2
INCH
; #@! TA.AperFunction,Plated,PTH,ViaDrill
T1C0.0157
; #@! TA.AperFunction,Plated,PTH,ComponentDrill
T2C0.0394
%
G90
G05
T1
X4.5257Y-5.7003
X4.5435Y-5.5826
X4.6515Y-5.4512
X4.7037Y-5.7469
X4.72Y-5.44
X4.7238Y-5.3269
X4.8199Y-5.2847
X4.8204Y-5.3419
X4.8517Y-5.2609
X4.8841Y-5.1684
X4.9112Y-5.6215
X4.9122Y-5.2609
X4.929Y-5.74
X4.9392Y-5.3104
X4.9397Y-5.3508
X4.9608Y-5.4114
X4.9867Y-5.3465
X4.9957Y-5.4964
X5.0073Y-5.4015
X5.0258Y-5.1555
X5.04Y-5.5
X5.0814Y-5.6332
X5.1253Y-5.3259
X5.1602Y-5.3556
X5.2273Y-5.5417
X5.2669Y-5.3435
X5.2705Y-5.3041
X5.3426Y-5.3848
X5.3455Y-5.4844
X5.3814Y-5.3419
X5.4048Y-5.7175
X5.4398Y-5.6063
X5.4449Y-5.711
X5.503Y-5.7282
X5.5654Y-5.7228
X5.5808Y-5.2328
X5.6819Y-5.2989
X5.6865Y-5.8269
T2
X3.9Y-6.0
X3.9Y-6.1
X4.0Y-6.0
X4.0Y-6.1
X4.1Y-6.0
X4.1Y-6.1
X4.2Y-6.0
X4.2Y-6.1
X4.3Y-6.0
X4.3Y-6.1
X4.4Y-6.0
X4.4Y-6.1
X4.5Y-6.0
X4.5Y-6.1
X4.6Y-6.0
X4.6Y-6.1
X4.7Y-6.0
X4.7Y-6.1
X4.8Y-6.0
X4.8Y-6.1
X4.9Y-6.0
X4.9Y-6.1
X5.0Y-6.0
X5.0Y-6.1
X5.1Y-6.0
X5.1Y-6.1
X5.2Y-6.0
X5.2Y-6.1
X5.3Y-6.0
X5.3Y-6.1
X5.4Y-6.0
X5.4Y-6.1
X5.5Y-6.0
X5.5Y-6.1
X5.6Y-6.0
X5.6Y-6.1
X5.7Y-6.0
X5.7Y-6.1
X5.8Y-6.0
X5.8Y-6.1
X5.9Y-5.3504
X5.9Y-5.4504
X5.9Y-5.5504
X5.9Y-5.6504
X5.9Y-6.0
X5.9Y-6.1
X6.0Y-6.0
X6.0Y-6.1
X6.1Y-6.0
X6.1Y-6.1
X6.2Y-6.0
X6.2Y-6.1
X6.3Y-5.2502
X6.3Y-5.3502
X6.3Y-5.4502
X6.3Y-5.5502
X6.3Y-5.6502
X6.3Y-6.0
X6.3Y-6.1
T0
M30
